<?xml version="1.0" encoding="UTF-8"?>
<svg width="512" height="512" viewBox="0 0 512 512" fill="none" xmlns="http://www.w3.org/2000/svg">
  <!-- Background -->
  <rect width="512" height="512" fill="#000000"/>
  
  <!-- Outer Glow -->
  <g filter="url(#outerGlow)">
    <!-- Pot Body -->
    <path d="M 156 186
             A 100 100 0 0 1 356 186
             V 326
             A 100 100 0 0 1 156 326
             Z"
          stroke="#00ff00"
          stroke-width="28"
          fill="none"/>
    
    <!-- Pot Lid -->
    <path d="M 136 186
             H 376"
          stroke="#00ff00"
          stroke-width="28"
          stroke-linecap="round"/>
    
    <!-- Lid Handle -->
    <circle cx="256" cy="156" r="20"
            stroke="#00ff00"
            stroke-width="20"
            fill="none"/>
    
    <!-- Steam -->
    <path d="M 216 126 Q 256 86 296 126"
          stroke="#00ff00"
          stroke-width="16"
          fill="none"
          stroke-linecap="round"/>
  </g>

  <!-- Inner White Layer -->
  <g filter="url(#innerGlow)">
    <!-- Pot Body -->
    <path d="M 156 186
             A 100 100 0 0 1 356 186
             V 326
             A 100 100 0 0 1 156 326
             Z"
          stroke="#ffffff"
          stroke-width="16"
          fill="none"/>
    
    <!-- Pot Lid -->
    <path d="M 136 186
             H 376"
          stroke="#ffffff"
          stroke-width="16"
          stroke-linecap="round"/>
    
    <!-- Lid Handle -->
    <circle cx="256" cy="156" r="20"
            stroke="#ffffff"
            stroke-width="12"
            fill="none"/>
    
    <!-- Steam -->
    <path d="M 216 126 Q 256 86 296 126"
          stroke="#ffffff"
          stroke-width="8"
          fill="none"
          stroke-linecap="round"/>
  </g>
  
  <!-- Neon Glow Effects -->
  <defs>
    <!-- Outer green glow -->
    <filter id="outerGlow" x="-50%" y="-50%" width="200%" height="200%">
      <feGaussianBlur in="SourceGraphic" stdDeviation="8"/>
      <feColorMatrix type="matrix"
        values="0 0 0 0 0
                0 1 0 0 0.8
                0 0 0 0 0
                0 0 0 1 0"/>
      <feComposite in="SourceGraphic"/>
    </filter>
    
    <!-- Inner white glow -->
    <filter id="innerGlow" x="-50%" y="-50%" width="200%" height="200%">
      <feGaussianBlur in="SourceGraphic" stdDeviation="2"/>
      <feColorMatrix type="matrix"
        values="1 0 0 0 1
                0 1 0 0 1
                0 0 1 0 1
                0 0 0 1 0"/>
      <feComposite in="SourceGraphic"/>
    </filter>
  </defs>
</svg> 